#!OML:ASF X:\für Bonn\!DataBase\2005_08_12_Daniel\c3d\Daniel.ASF
:FULLY-SPECIFIED
:DEGREES
114
root -2.90419 10.6089 -1.0182 334.172 -87.5201 -353.222
lowerback 55.7934 -4.50856 4.34962
upperback 4.61879 -4.91856 -2.94009
thorax -16.7565 -2.81651 -2.63203
lowerneck 7.29379 1.47869 -2.10026
upperneck -8.66873 1.72058 -0.0618029
head -4.17415 0.914286 0.252166
rclavicle -3.95581e-014 -1.19271e-014
rhumerus 84.7355 -16.8934 -196.22
rradius 8.1059
rwrist 164.827
rhand -27.6145 13.7631
rfingers 7.12502
rthumb -1.01357 -16.2142
lclavicle -3.95581e-014 -1.19271e-014
lhumerus 65.8221 -5.21989 78.0372
lradius 11.139
lwrist -53.9287
lhand -19.6359 2.14953
lfingers 7.12502
lthumb 6.69131 32.0238
rfemur -53.8354 -49.8906 -6.1198
rtibia 125.98
rfoot -7.0524 30.5103
rtoes -7.11814
lfemur 119.22 144.52 -183.223
ltibia 123.433
lfoot -6.25106 -37.039
ltoes 9.24733
115
root -2.89997 10.7925 -1.01225 332.765 -87.4834 -351.532
lowerback 55.2709 -4.48155 4.35677
upperback 4.61724 -4.88285 -2.95234
thorax -16.7093 -2.79593 -2.67938
lowerneck 7.00602 1.4655 -2.11527
upperneck -8.3368 1.71425 -0.0341942
head -3.99808 0.909021 0.267453
rclavicle 1.39149e-015 1.51076e-014
rhumerus 84.7747 -16.9955 -196.1
rradius 7.96233
rwrist 164.603
rhand -27.4858 13.6769
rfingers 7.12502
rthumb -0.889278 -16.301
lclavicle 1.39149e-015 1.51076e-014
lhumerus 65.8258 -5.08817 78.5313
lradius 11.0442
lwrist -54.4949
lhand -19.5181 2.05651
lfingers 7.12502
lthumb 6.80507 31.9271
rfemur -53.7096 -47.7112 -4.75821
rtibia 124.348
rfoot -6.94201 29.1451
rtoes -7.21916
lfemur 120.259 145.958 -183.78
ltibia 121.749
lfoot -6.1571 -36.5077
ltoes 9.56787
116
root -2.89727 10.9768 -1.00645 331.833 -87.4457 -350.318
lowerback 54.7086 -4.4544 4.3852
upperback 4.62989 -4.83559 -2.96081
thorax -16.6366 -2.77189 -2.73939
lowerneck 6.7201 1.43928 -2.10793
upperneck -7.98861 1.69109 -0.0251513
head -3.81728 0.895494 0.273411
rclavicle 1.07344e-014 -1.03368e-014
rhumerus 84.7977 -17.087 -195.979
rradius 7.88577
rwrist 164.467
rhand -27.3862 13.6206
rfingers 7.12502
rthumb -0.793116 -16.3576
lclavicle 1.07344e-014 -1.03368e-014
lhumerus 65.7643 -4.89917 79.2559
lradius 11.0436
lwrist -55.2736
lhand -19.4131 1.95941
lfingers 7.12502
lthumb 6.90636 31.8268
rfemur -53.3703 -45.6631 -3.60477
rtibia 122.669
rfoot -6.79132 27.9198
rtoes -7.20683
lfemur 121.345 147.303 -184.279
ltibia 120.037
lfoot -6.11816 -36.0725
ltoes 9.95037
117
root -2.8947 11.1621 -1.00134 331.034 -87.4103 -349.252
lowerback 54.1441 -4.41613 4.40144
upperback 4.64441 -4.7817 -2.96228
thorax -16.5563 -2.74479 -2.78967
lowerneck 6.46667 1.42884 -2.10263
upperneck -7.66441 1.68958 0.0032905
head -3.65327 0.89205 0.284536
rclavicle -6.55989e-015 2.78299e-015
rhumerus 84.8241 -17.1848 -195.86
rradius 7.83276
rwrist 164.401
rhand -27.389 13.5511
rfingers 7.12502
rthumb -0.795819 -16.4272
lclavicle -6.55989e-015 2.78299e-015
lhumerus 65.6553 -4.71116 79.9921
lradius 11.1256
lwrist -56.0056
lhand -19.2505 1.77475
lfingers 7.12502
lthumb 7.06336 31.6369
rfemur -52.8458 -43.6924 -2.65999
rtibia 120.939
rfoot -6.47997 26.8752
rtoes -6.90055
lfemur 122.501 148.584 -184.715
ltibia 118.274
lfoot -6.06462 -35.7311
ltoes 10.2841
118
root -2.89268 11.3461 -0.99623 330.327 -87.3601 -348.304
lowerback 53.6051 -4.38226 4.38263
upperback 4.64759 -4.74806 -2.94139
thorax -16.4871 -2.72432 -2.78745
lowerneck 6.19774 1.42673 -2.1331
upperneck -7.3049 1.69604 0.0296833
head -3.47567 0.89356 0.30094
rclavicle -1.51076e-014 -1.66979e-014
rhumerus 84.7719 -17.3086 -195.72
rradius 7.81582
rwrist 164.399
rhand -27.4249 13.4426
rfingers 7.12502
rthumb -0.830476 -16.5356
lclavicle -1.51076e-014 -1.66979e-014
lhumerus 65.4703 -4.43043 80.8165
lradius 11.2621
lwrist -56.8282
lhand -19.0836 1.56067
lfingers 7.12502
lthumb 7.22449 31.4173
rfemur -52.174 -41.8904 -1.89324
rtibia 119.187
rfoot -6.28089 25.9289
rtoes -6.79965
lfemur 123.722 149.808 -185.113
ltibia 116.473
lfoot -6.1095 -35.4862
ltoes 10.7277
119
root -2.89148 11.5296 -0.991615 329.899 -87.327 -347.625
lowerback 53.0316 -4.34515 4.39114
upperback 4.65249 -4.69977 -2.94265
thorax -16.4107 -2.69896 -2.83157
lowerneck 5.97857 1.41587 -2.10654
upperneck -6.97009 1.69539 0.0636639
head -3.3169 0.889832 0.309679
rclavicle 2.98177e-015 -1.19271e-015
rhumerus 84.7707 -17.4391 -195.622
rradius 7.82373
rwrist 164.485
rhand -27.5289 13.3581
rfingers 7.12502
rthumb -0.930929 -16.6196
lclavicle 2.98177e-015 -1.19271e-015
lhumerus 65.2995 -4.22717 81.5362
lradius 11.3553
lwrist -57.5727
lhand -18.9388 1.39106
lfingers 7.12502
lthumb 7.36424 31.2429
rfemur -51.458 -40.2084 -1.18898
rtibia 117.422
rfoot -6.29617 25.0844
rtoes -6.99099
lfemur 124.963 150.906 -185.459
ltibia 114.646
lfoot -6.42491 -35.3616
ltoes 10.8912
120
root -2.89082 11.7122 -0.987471 330.398 -87.3046 -347.888
lowerback 52.4808 -4.31591 4.42432
upperback 4.64217 -4.64069 -2.92031
thorax -16.3487 -2.67018 -2.86522
lowerneck 5.80469 1.40263 -2.10618
upperneck -6.67765 1.68693 0.0937625
head -3.18273 0.883331 0.321608
rclavicle -1.53064e-014 -2.54444e-014
rhumerus 84.7712 -17.6013 -195.506
rradius 7.83558
rwrist 164.567
rhand -27.6764 13.2563
rfingers 7.12502
rthumb -1.07334 -16.7207
lclavicle -1.53064e-014 -2.54444e-014
lhumerus 65.1071 -4.00541 82.321
lradius 11.4121
lwrist -58.4036
lhand -18.9035 1.24138
lfingers 7.12502
lthumb 7.3983 31.092
rfemur -50.6226 -38.6432 -0.538798
rtibia 115.617
rfoot -6.45518 24.2993
rtoes -7.27827
lfemur 126.252 151.937 -185.717
ltibia 112.784
lfoot -6.7937 -35.3717
ltoes 11.1948
121
root -2.89042 11.895 -0.983439 330.512 -87.2942 -347.757
lowerback 51.9182 -4.27103 4.42417
upperback 4.62109 -4.58102 -2.89633
thorax -16.2938 -2.63928 -2.88237
lowerneck 5.66179 1.4043 -2.10907
upperneck -6.37729 1.69781 0.128918
head -3.0529 0.886389 0.334599
rclavicle 8.74653e-015 -1.19271e-015
rhumerus 84.7312 -17.7672 -195.395
rradius 7.86874
rwrist 164.559
rhand -27.8159 13.1642
rfingers 7.12502
rthumb -1.20812 -16.8121
lclavicle 8.74653e-015 -1.19271e-015
lhumerus 64.9179 -3.77207 83.046
lradius 11.4123
lwrist -59.2069
lhand -18.9472 1.06063
lfingers 7.12502
lthumb 7.35613 30.9127
rfemur -49.7461 -37.1704 0.0383768
rtibia 113.786
rfoot -6.73894 23.6709
rtoes -7.63189
lfemur 127.58 152.901 -185.968
ltibia 110.879
lfoot -7.3337 -35.4302
ltoes 11.3934
122
root -2.88985 12.0753 -0.979721 331.647 -87.2762 -348.654
lowerback 51.3732 -4.25295 4.46743
upperback 4.58877 -4.52641 -2.86293
thorax -16.2515 -2.61232 -2.90604
lowerneck 5.60829 1.40049 -2.11296
upperneck -6.17877 1.69757 0.157034
head -2.97527 0.884649 0.345156
rclavicle -7.7526e-015 -3.57812e-015
rhumerus 84.6645 -17.959 -195.284
rradius 7.93996
rwrist 164.541
rhand -27.9212 13.1045
rfingers 7.12502
rthumb -1.30982 -16.8712
lclavicle -7.7526e-015 -3.57812e-015
lhumerus 64.7596 -3.59611 83.6318
lradius 11.3513
lwrist -59.8416
lhand -19.07 0.969284
lfingers 7.12502
lthumb 7.23755 30.8255
rfemur -48.765 -35.8329 0.560689
rtibia 111.929
rfoot -7.01474 23.1783
rtoes -7.96413
lfemur 128.906 153.834 -186.143
ltibia 108.971
lfoot -7.91425 -35.5961
ltoes 11.578
123
root -2.88944 12.2535 -0.976144 333.029 -87.2663 -349.793
lowerback 50.8172 -4.23257 4.51024
upperback 4.54965 -4.46742 -2.81826
thorax -16.2107 -2.58333 -2.91957
lowerneck 5.52613 1.40283 -2.14652
upperneck -5.95892 1.70514 0.205484
head -2.88597 0.886655 0.367261
rclavicle -1.80894e-014 -3.97569e-016
rhumerus 84.5911 -18.1812 -195.163
rradius 7.9851
rwrist 164.366
rhand -28.0612 13.0785
rfingers 7.12502
rthumb -1.44504 -16.8963
lclavicle -1.80894e-014 -3.97569e-016
lhumerus 64.5777 -3.38183 84.3077
lradius 11.2962
lwrist -60.5568
lhand -19.1887 0.876409
lfingers 7.12502
lthumb 7.12305 30.7365
rfemur -47.6962 -34.5761 1.02297
rtibia 110.047
rfoot -7.2534 22.8702
rtoes -8.03221
lfemur 130.266 154.723 -186.267
ltibia 107.038
lfoot -8.48161 -35.8416
ltoes 11.9431
124
root -2.88983 12.4272 -0.97305 334.505 -87.2532 -351.004
lowerback 50.2394 -4.21045 4.56638
upperback 4.50384 -4.40117 -2.78306
thorax -16.1718 -2.5516 -2.95464
lowerneck 5.39319 1.38398 -2.14209
upperneck -5.71788 1.6875 0.239319
head -2.7793 0.875643 0.379358
rclavicle 7.7526e-015 3.97569e-015
rhumerus 84.5213 -18.3499 -195.065
rradius 8.07757
rwrist 164.131
rhand -28.0684 13.0821
rfingers 7.12502
rthumb -1.45195 -16.8927
lclavicle 7.7526e-015 3.97569e-015
lhumerus 64.441 -3.23623 84.8514
lradius 11.1621
lwrist -61.12
lhand -19.3837 0.797802
lfingers 7.12502
lthumb 6.93481 30.6642
rfemur -46.6079 -33.4168 1.45618
rtibia 108.145
rfoot -7.42882 22.7097
rtoes -7.86769
lfemur 131.633 155.558 -186.352
ltibia 105.104
lfoot -9.03323 -36.1734
ltoes 12.3052
